<?xml version="1.0" standalone="no"?>
<!DOCTYPE svg PUBLIC "-//W3C//DTD SVG 20010904//EN"
 "http://www.w3.org/TR/2001/REC-SVG-20010904/DTD/svg10.dtd">
<svg version="1.0" xmlns="http://www.w3.org/2000/svg"
 width="270.000000pt" height="92.000000pt" viewBox="0 0 270.000000 92.000000"
 preserveAspectRatio="xMidYMid meet">

<g transform="translate(0.000000,92.000000) scale(0.100000,-0.100000)"
fill="#000000" stroke="none">
<path d="M32 718 c-12 -101 -22 -191 -22 -200 0 -16 12 -18 110 -18 81 0 110
3 110 13 0 6 3 22 6 35 6 21 4 22 -63 22 l-69 0 17 138 c26 201 28 192 -24
192 l-43 0 -22 -182z"/>
<path d="M337 714 c-49 -102 -91 -193 -94 -201 -5 -11 3 -14 38 -11 41 3 45 6
64 45 l20 42 67 1 c66 0 68 -1 74 -27 14 -64 13 -63 60 -63 41 0 44 2 39 23
-3 12 -23 99 -45 192 -22 94 -40 173 -40 178 0 4 -21 7 -48 7 l-47 0 -88 -186z
m137 44 c4 -24 9 -58 12 -75 l6 -33 -50 0 -51 0 31 75 c17 41 34 75 38 75 4 0
10 -19 14 -42z"/>
<path d="M702 700 l50 -200 42 0 41 0 97 200 96 200 -43 0 c-23 0 -47 -6 -53
-12 -5 -7 -33 -69 -62 -138 -28 -69 -55 -128 -59 -133 -4 -4 -17 48 -30 115
-31 167 -31 168 -85 168 l-44 0 50 -200z"/>
<path d="M1077 714 c-49 -102 -91 -193 -94 -201 -5 -11 3 -14 38 -11 41 3 45
6 64 45 l20 42 67 1 c66 0 68 -1 74 -27 14 -64 13 -63 60 -63 41 0 44 2 39 23
-3 12 -23 99 -45 192 -22 94 -40 173 -40 178 0 4 -21 7 -48 7 l-47 0 -88 -186z
m137 44 c4 -24 9 -58 12 -75 l6 -33 -50 0 -51 0 31 75 c17 41 34 75 38 75 4 0
10 -19 14 -42z"/>
<path d="M1412 718 c-29 -236 -30 -218 16 -218 l38 0 15 128 14 127 45 -78
c89 -155 102 -172 137 -175 37 -4 33 -16 58 193 8 72 18 147 21 168 l6 37 -41
0 c-26 0 -41 -5 -41 -12 -1 -32 -28 -230 -32 -234 -3 -2 -36 51 -74 118 -66
118 -70 123 -104 126 l-36 3 -22 -183z"/>
<path d="M1812 718 c-12 -101 -22 -191 -22 -200 0 -16 11 -18 93 -18 82 0 100
3 148 28 143 72 161 283 29 350 -36 18 -61 22 -135 22 l-91 0 -22 -182z m205
97 c64 -45 47 -192 -27 -230 -16 -8 -45 -15 -65 -15 -29 0 -35 4 -35 21 0 28
20 211 25 227 6 17 76 15 102 -3z"/>
<path d="M2237 714 c-49 -102 -91 -193 -94 -201 -5 -11 3 -14 38 -11 41 3 45
6 64 45 l20 42 67 1 c66 0 68 -1 74 -27 14 -64 13 -63 60 -63 41 0 44 2 39 23
-3 12 -23 99 -45 192 -22 94 -40 173 -40 178 0 4 -21 7 -48 7 l-47 0 -88 -186z
m137 44 c4 -24 9 -58 12 -75 l6 -33 -50 0 -51 0 31 75 c17 41 34 75 38 75 4 0
10 -19 14 -42z"/>
<path d="M30 205 l0 -195 93 1 c108 1 145 12 192 58 74 72 73 198 -3 275 -41
42 -89 56 -196 56 l-86 0 0 -195z m212 96 c31 -28 33 -33 33 -96 0 -63 -2 -68
-33 -96 -26 -24 -41 -29 -82 -29 l-50 0 0 125 0 125 50 0 c41 0 56 -5 82 -29z"/>
<path d="M430 205 l0 -195 120 0 120 0 0 35 0 35 -80 0 -80 0 0 45 0 45 60 0
60 0 0 30 0 30 -60 0 -60 0 0 50 0 50 80 0 80 0 0 35 0 35 -120 0 -120 0 0
-195z"/>
<path d="M730 205 l0 -195 110 0 110 0 0 35 0 35 -70 0 -70 0 0 160 0 160 -40
0 -40 0 0 -195z"/>
<path d="M1120 205 l0 -195 40 0 40 0 0 65 0 65 45 0 c96 0 155 49 155 130 0
92 -57 130 -195 130 l-85 0 0 -195z m174 119 c9 -8 16 -31 16 -49 0 -44 -22
-65 -71 -65 l-39 0 0 65 0 65 39 0 c23 0 46 -7 55 -16z"/>
<path d="M1545 388 c-3 -7 -34 -91 -70 -187 -36 -95 -65 -178 -65 -183 0 -5
19 -8 43 -6 40 3 43 5 55 46 l14 42 72 0 72 0 14 -42 c14 -41 17 -43 58 -46
23 -2 42 1 42 6 0 5 -31 92 -69 193 l-69 184 -46 3 c-31 2 -48 -1 -51 -10z
m79 -156 l25 -72 -54 0 -54 0 26 76 c14 41 27 73 29 71 2 -2 15 -36 28 -75z"/>
<path d="M1790 365 l0 -35 50 0 50 0 0 -160 0 -160 45 0 45 0 0 160 0 160 55
0 55 0 0 35 0 35 -150 0 -150 0 0 -35z"/>
<path d="M2140 205 l0 -195 40 0 40 0 0 195 0 195 -40 0 -40 0 0 -195z"/>
<path d="M2384 381 c-23 -10 -54 -36 -70 -57 -26 -34 -29 -45 -29 -119 0 -74
3 -85 29 -119 94 -124 304 -86 346 62 13 47 13 67 0 114 -31 111 -166 169
-276 119z m149 -72 c56 -43 60 -148 7 -201 -43 -43 -122 -35 -155 15 -19 30
-22 106 -5 147 24 57 104 78 153 39z"/>
</g>
</svg>
