<svg aria-hidden="false" aria-label="Valoración en TMDB" class="chroma_Icon_none chroma_Icon_inheritColor" fill="currentColor" height="48" viewBox="0 0 70 48" width="70" xmlns="http://www.w3.org/2000/svg" style="width: auto; height: max(1.5em, 1rem);"><path d="M38.8819 22.2769H63.4982C65.222 22.2769 66.8752 21.5919 68.0944 20.3726C69.3136 19.1534 69.999 17.4995 70 15.7747C70 14.0492 69.315 12.3944 68.0957 11.1743C66.8763 9.95422 65.2226 9.26878 63.4982 9.26878H38.8819C37.1576 9.26878 35.5038 9.95422 34.2845 11.1743C33.0652 12.3944 32.3801 14.0492 32.3801 15.7747C32.3811 17.4995 33.0666 19.1534 34.2858 20.3726C35.505 21.5919 37.1582 22.2769 38.8819 22.2769ZM6.50179 38.8454H34.7976C36.5214 38.8454 38.1746 38.1604 39.3938 36.9411C40.613 35.7218 41.2984 34.068 41.2994 32.3432C41.2994 30.6177 40.6144 28.9629 39.3951 27.7428C38.1758 26.5227 36.522 25.8373 34.7976 25.8373H6.50179C4.77741 25.8373 3.12365 26.5227 1.90433 27.7428C0.685008 28.9629 0 30.6177 0 32.3432H0C0.00097552 34.068 0.686414 35.7218 1.90563 36.9411C3.12485 38.1604 4.77804 38.8454 6.50179 38.8454ZM3.83042 22.0412H6.70048V11.5479H10.4168V9H0.114066V11.5405H3.83042V22.0412ZM14.17 22.0412H17.0401V12.0376H17.0768L20.3885 22.0339H22.5962L26.0182 12.0376H26.055V22.0339H28.925V9H24.5648L21.5475 17.5052H21.5107L18.5119 9H14.17V22.0412ZM56.0876 29.4971C55.7037 28.6961 55.1334 27.9991 54.4244 27.4647C53.6889 26.9264 52.8531 26.5409 51.9665 26.3306C50.9952 26.0878 49.9981 25.9642 48.9971 25.9624H44.692V38.9963H49.3834C50.3258 39.0009 51.2632 38.858 52.1615 38.5729C53.0096 38.3146 53.8021 37.9001 54.498 37.3505C55.175 36.8007 55.7237 36.1096 56.106 35.3255C56.5192 34.4542 56.7245 33.4988 56.7057 32.5346C56.7357 31.488 56.5242 30.4486 56.0876 29.4971ZM53.3537 34.2577C53.1384 34.749 52.8046 35.1792 52.3823 35.5096C51.9433 35.8324 51.4421 36.0606 50.9104 36.1797C50.3072 36.3187 49.6897 36.3867 49.0706 36.3822H47.5804V28.6502H49.273C49.8538 28.6473 50.4321 28.7254 50.9914 28.8822C51.5059 29.021 51.99 29.2545 52.419 29.5707C52.8124 29.8805 53.1317 30.2742 53.3537 30.7231C53.6064 31.2408 53.7325 31.8113 53.7216 32.3873C53.7378 33.0303 53.6121 33.6689 53.3537 34.2577ZM69.7755 34.2099C69.6456 33.8539 69.4482 33.5263 69.1942 33.2452C68.9414 32.9656 68.6396 32.7348 68.3037 32.5641C67.9374 32.379 67.5434 32.2547 67.1373 32.1959V32.1591C67.7684 31.9777 68.3334 31.6171 68.7637 31.1208C69.1878 30.6034 69.4077 29.9485 69.3818 29.2798C69.4094 28.6802 69.2624 28.0854 68.9587 27.5677C68.6815 27.1457 68.3017 26.8011 67.8548 26.5663C67.3741 26.3179 66.8535 26.1559 66.3168 26.0876C65.7537 26.0071 65.1856 25.9665 64.6168 25.9661H59.7598V39H65.0951C65.6789 39.0003 66.2611 38.9386 66.8319 38.8159C67.3876 38.7046 67.9202 38.4991 68.4067 38.2084C68.8672 37.9335 69.2577 37.5554 69.5474 37.1038C69.8577 36.5841 70.011 35.9857 69.989 35.3807C69.9895 34.9817 69.9211 34.5855 69.7866 34.2099H69.7755ZM62.6298 28.4109H64.58C64.8085 28.4118 65.0364 28.434 65.2607 28.4772C65.4783 28.5163 65.689 28.587 65.8862 28.687C66.0681 28.7863 66.2224 28.9293 66.3352 29.1031C66.4594 29.3039 66.5209 29.5372 66.5118 29.7732C66.5171 30.0041 66.4626 30.2324 66.3536 30.4359C66.2543 30.6147 66.1128 30.7664 65.9414 30.8778C65.7631 30.9909 65.5663 31.0718 65.3601 31.1171C65.1467 31.1674 64.928 31.1921 64.7088 31.1907H62.6298V28.4109ZM66.9423 35.7747C66.8316 35.9668 66.6779 36.1306 66.4934 36.2533C66.3063 36.3792 66.0962 36.4668 65.8752 36.511C65.6554 36.5606 65.4308 36.5853 65.2055 36.5847H62.6298V33.6392H64.8008C65.047 33.6415 65.2928 33.66 65.5367 33.6944C65.7956 33.73 66.049 33.798 66.291 33.8969C66.5167 33.9914 66.7152 34.1408 66.8687 34.3314C67.0288 34.5426 67.1107 34.8028 67.1005 35.0677C67.1123 35.3133 67.0576 35.5576 66.9423 35.7747Z" fill="url(#paint0_linear)"></path><defs><linearGradient gradientUnits="userSpaceOnUse" id="paint0_linear" x1="0" x2="70" y1="24.0074" y2="24.0074"><stop stop-color="#90CEA1"></stop><stop offset="0.56" stop-color="#3CBEC9"></stop><stop offset="1" stop-color="#00B3E5"></stop></linearGradient></defs></svg>
